<svg xmlns="http://www.w3.org/2000/svg" width="1100" height="1600" viewBox="0 0 1100 1600">
  <defs>
    <style>
      .box { fill:#f5f5f5; stroke:#333; stroke-width:4; rx:30; }
      .ellipse { fill:#d9d0ff; stroke:#333; stroke-width:4; }
      .diamond { fill:#d9d0ff; stroke:#333; stroke-width:4; }
      .text { font-family:'Helvetica Neue', Arial, sans-serif; font-size:42px; font-weight:700; fill:#222; }
      .text-small { font-family:'Helvetica Neue', Arial, sans-serif; font-size:32px; font-weight:500; fill:#222; }
      .ticket { fill:#ffd782; stroke:#ba7a00; stroke-width:3; rx:20; }
      .ticket-text { font-family:'Helvetica Neue', Arial, sans-serif; font-size:26px; font-weight:700; fill:#8a4f00; }
      .arrow { stroke:#333; stroke-width:6; fill:none; marker-end:url(#arrowhead); }
      .dashed { stroke-dasharray:20 14; }
    </style>
    <marker id="arrowhead" markerWidth="14" markerHeight="14" refX="10" refY="7" orient="auto" markerUnits="strokeWidth">
      <path d="M0,0 L14,7 L0,14 z" fill="#333" />
    </marker>
  </defs>

  <rect class="ellipse" x="400" y="40" width="300" height="160" rx="140" />
  <text class="text" x="550" y="140" text-anchor="middle">Vision</text>

  <rect class="box" x="220" y="240" width="360" height="190" rx="40" />
  <text class="text-small" x="400" y="320" text-anchor="middle">Brain Storming</text>
  <text class="text-small" x="400" y="370" text-anchor="middle">Research</text>

  <rect class="box" x="400" y="470" width="300" height="140" rx="30" />
  <text class="text" x="550" y="560" text-anchor="middle">목표</text>

  <rect class="box" x="400" y="660" width="300" height="140" rx="30" />
  <text class="text" x="550" y="750" text-anchor="middle">Plan</text>

  <rect class="box" x="400" y="850" width="300" height="140" rx="30" />
  <text class="text" x="550" y="940" text-anchor="middle">분배</text>

  <polygon class="diamond" points="550,1030 700,1110 550,1190 400,1110" />
  <text class="text" x="550" y="1118" text-anchor="middle">check</text>

  <rect class="box" x="400" y="1210" width="300" height="120" rx="30" />
  <text class="text" x="550" y="1288" text-anchor="middle">Compile</text>

  <rect class="box" x="400" y="1370" width="300" height="120" rx="30" />
  <text class="text" x="550" y="1448" text-anchor="middle">산출물</text>

  <rect class="ellipse" x="400" y="1530" width="300" height="140" rx="140" />
  <text class="text" x="550" y="1618" text-anchor="middle">Achieve</text>

  <!-- vertical arrows -->
  <line class="arrow" x1="550" y1="200" x2="550" y2="240" />
  <line class="arrow" x1="550" y1="430" x2="550" y2="470" />
  <line class="arrow" x1="550" y1="600" x2="550" y2="660" />
  <line class="arrow" x1="550" y1="790" x2="550" y2="850" />
  <line class="arrow" x1="550" y1="990" x2="550" y2="1030" />
  <line class="arrow" x1="550" y1="1190" x2="550" y2="1210" />
  <line class="arrow" x1="550" y1="1330" x2="550" y2="1370" />
  <line class="arrow" x1="550" y1="1490" x2="550" y2="1530" />

  <line class="arrow" x1="400" y1="335" x2="220" y2="335" />
  <line class="arrow" x1="580" y1="335" x2="760" y2="335" />
  <line class="arrow" x1="760" y1="335" x2="760" y2="890" />
  <line class="arrow" x1="760" y1="890" x2="700" y2="890" />
  <line class="arrow" x1="400" y1="890" x2="240" y2="890" />
  <line class="arrow" x1="240" y1="890" x2="240" y2="390" />
  <line class="arrow" x1="240" y1="390" x2="220" y2="390" />

  <!-- stick figures -->
  <g stroke="#333" stroke-width="6" fill="none">
    <circle cx="410" cy="940" r="40" fill="white" />
    <line x1="410" y1="900" x2="410" y2="1000" />
    <line x1="410" y1="1000" x2="370" y2="1100" />
    <line x1="410" y1="1000" x2="450" y2="1100" />
    <line x1="360" y1="980" x2="460" y2="980" />
  </g>
  <g stroke="#333" stroke-width="6" fill="none">
    <circle cx="550" cy="940" r="40" fill="white" />
    <line x1="550" y1="900" x2="550" y2="1000" />
    <line x1="550" y1="1000" x2="510" y2="1100" />
    <line x1="550" y1="1000" x2="590" y2="1100" />
    <line x1="500" y1="980" x2="600" y2="980" />
  </g>
  <g stroke="#333" stroke-width="6" fill="none">
    <circle cx="690" cy="940" r="40" fill="white" />
    <line x1="690" y1="900" x2="690" y2="1000" />
    <line x1="690" y1="1000" x2="650" y2="1100" />
    <line x1="690" y1="1000" x2="730" y2="1100" />
    <line x1="640" y1="980" x2="740" y2="980" />
  </g>

  <!-- dotted line -->
  <line x1="450" y1="980" x2="510" y2="980" stroke="#333" stroke-width="4" stroke-dasharray="20 12" />
  <line x1="590" y1="980" x2="650" y2="980" stroke="#333" stroke-width="4" stroke-dasharray="20 12" />

  <!-- tickets -->
  <rect class="ticket" x="300" y="875" width="130" height="70" />
  <text class="ticket-text" x="365" y="920" text-anchor="middle">TICKET</text>
  <rect class="ticket" x="520" y="820" width="130" height="70" />
  <text class="ticket-text" x="585" y="865" text-anchor="middle">TICKET</text>
  <rect class="ticket" x="720" y="875" width="130" height="70" />
  <text class="ticket-text" x="785" y="920" text-anchor="middle">TICKET</text>

  <!-- final arrow to achieve -->
  <line class="arrow" x1="550" y1="166" x2="550" y2="200" />
  <line class="arrow" x1="550" y1="1640" x2="550" y2="1670" marker-end="url(#arrowhead)" />
</svg>
